# xmcd CD database file
#
# Track frame offsets:
#	150
#	19797
#	44892
#	75312
#	103300
#	126537
#	146845
#	163205
#	185655
#	205387
#
# Disc length: 3066 seconds
#
# Revision: 0
# Processed by: cddbd v1.5.2PL0 Copyright (c) Steve Scherf et al.
# Submitted via: CDex 1.70beta2
#
DISCID=9c0bf80a
DTITLE=Hitomi Nishiyama - Cubium
DYEAR=2006
DGENRE=Jazz
TTITLE0=Cubium
TTITLE1=Call
TTITLE2=All Of You
TTITLE3=You Are Not Alone
TTITLE4=In The Night Watch
TTITLE5=All The Things You Are
TTITLE6=Simurgh
TTITLE7=Bye For Now
TTITLE8=Giraffe's Dance
TTITLE9=My Own Secrets
EXTD=YEAR: 2006
EXTT0=
EXTT1=
EXTT2=
EXTT3=
EXTT4=
EXTT5=
EXTT6=
EXTT7=
EXTT8=
EXTT9=
PLAYORDER=
